<svg width="33" height="33" viewBox="0 0 33 33" version="1.1" xmlns="http://www.w3.org/2000/svg" xmlns:xlink="http://www.w3.org/1999/xlink" xmlns:figma="http://www.figma.com/figma/ns">
<title>Group</title>
<desc>Created using Figma</desc>
<g id="Canvas" transform="translate(485 -441)" figma:type="canvas">
<g id="Group" style="mix-blend-mode:normal;" figma:type="frame">
<g id="Vector 2" style="mix-blend-mode:normal;" figma:type="vector">
<use xlink:href="#path0_stroke" transform="translate(-484 457.5)" fill="#FFFFFF" style="mix-blend-mode:normal;"/>
</g>
<g id="Vector 2" style="mix-blend-mode:normal;" figma:type="vector">
<use xlink:href="#path0_stroke" transform="matrix(-1.83697e-16 1 -1 -1.83697e-16 -468.5 442)" fill="#FFFFFF" style="mix-blend-mode:normal;"/>
</g>
</g>
</g>
<defs>
<path id="path0_stroke" d="M 0 -1C -0.552285 -1 -1 -0.552285 -1 0C -1 0.552285 -0.552285 1 0 1L 0 -1ZM 31 1C 31.5523 1 32 0.552285 32 0C 32 -0.552285 31.5523 -1 31 -1L 31 1ZM 0 1C 4.45402 1 12.204 1 18.8405 1C 22.1588 1 25.1986 1 27.4089 1C 28.5141 1 29.4119 1 30.0333 1C 30.3441 1 30.5857 1 30.7497 1C 30.8317 1 30.8943 1 30.9364 1C 30.9574 1 30.9733 1 30.984 1C 30.9893 1 30.9933 1 30.996 1C 30.9973 1 30.9983 1 30.999 1C 30.9993 1 30.9996 1 30.9997 1C 30.9999 1 31 1 31 0C 31 -1 30.9999 -1 30.9997 -1C 30.9996 -1 30.9993 -1 30.999 -1C 30.9983 -1 30.9973 -1 30.996 -1C 30.9933 -1 30.9893 -1 30.984 -1C 30.9733 -1 30.9574 -1 30.9364 -1C 30.8943 -1 30.8317 -1 30.7497 -1C 30.5857 -1 30.3441 -1 30.0333 -1C 29.4119 -1 28.5141 -1 27.4089 -1C 25.1986 -1 22.1588 -1 18.8405 -1C 12.204 -1 4.45402 -1 0 -1L 0 1Z"/>
</defs>
</svg>
