<svg width="35" height="30" viewBox="0 0 35 30" version="1.1" xmlns="http://www.w3.org/2000/svg" xmlns:xlink="http://www.w3.org/1999/xlink" xmlns:figma="http://www.figma.com/figma/ns">
<title>Group</title>
<desc>Created using Figma</desc>
<g id="Canvas" transform="translate(539 -442)" figma:type="canvas">
<g id="Group" style="mix-blend-mode:normal;" figma:type="frame">
<g id="Rectangle 9" style="mix-blend-mode:normal;" figma:type="rounded-rectangle">
<use xlink:href="#path0_stroke" transform="translate(-532.879 443)" fill="#FFFFFF" style="mix-blend-mode:normal;"/>
</g>
<g id="Rectangle 9" style="mix-blend-mode:normal;" figma:type="rounded-rectangle">
<use xlink:href="#path0_stroke" transform="translate(-527.19 443)" fill="#FFFFFF" style="mix-blend-mode:normal;"/>
</g>
<g id="Rectangle 9" style="mix-blend-mode:normal;" figma:type="rounded-rectangle">
<use xlink:href="#path0_stroke" transform="translate(-521.5 443)" fill="#FFFFFF" style="mix-blend-mode:normal;"/>
</g>
<g id="Rectangle 9" style="mix-blend-mode:normal;" figma:type="rounded-rectangle">
<use xlink:href="#path0_stroke" transform="translate(-515.81 443)" fill="#FFFFFF" style="mix-blend-mode:normal;"/>
</g>
<g id="Vector 2" style="mix-blend-mode:normal;" figma:type="vector">
<use xlink:href="#path1_stroke" transform="translate(-538 443)" fill="#FFFFFF" style="mix-blend-mode:normal;"/>
</g>
</g>
</g>
<defs>
<path id="path0_stroke" d="M 0 0L 0 -1C -0.552285 -1 -1 -0.552285 -1 2.22045e-16L 0 0ZM 5.68966 0L 6.68966 0C 6.68966 -0.552285 6.24194 -1 5.68966 -1L 5.68966 0ZM 5.68966 28L 5.68966 29C 6.24194 29 6.68966 28.5523 6.68966 28L 5.68966 28ZM 0 28L -1 28C -1 28.5523 -0.552285 29 2.22045e-16 29L 0 28ZM 0 1L 5.68966 1L 5.68966 -1L 0 -1L 0 1ZM 4.68966 0L 4.68966 28L 6.68966 28L 6.68966 0L 4.68966 0ZM 5.68966 27L 0 27L 0 29L 5.68966 29L 5.68966 27ZM 1 28L 1 0L -1 0L -1 28L 1 28Z"/>
<path id="path1_stroke" d="M 0 -1C -0.552285 -1 -1 -0.552285 -1 0C -1 0.552285 -0.552285 1 0 1L 0 -1ZM 33 1C 33.5523 1 34 0.552285 34 0C 34 -0.552285 33.5523 -1 33 -1L 33 1ZM 0 1C 4.74138 1 12.9914 1 20.056 1C 23.5884 1 26.8244 1 29.1773 1C 30.3537 1 31.3094 1 31.971 1C 32.3018 1 32.559 1 32.7336 1C 32.8209 1 32.8875 1 32.9322 1C 32.9546 1 32.9716 1 32.9829 1C 32.9886 1 32.9929 1 32.9957 1C 32.9971 1 32.9982 1 32.9989 1C 32.9993 1 32.9996 1 32.9997 1C 32.9999 1 33 1 33 0C 33 -1 32.9999 -1 32.9997 -1C 32.9996 -1 32.9993 -1 32.9989 -1C 32.9982 -1 32.9971 -1 32.9957 -1C 32.9929 -1 32.9886 -1 32.9829 -1C 32.9716 -1 32.9546 -1 32.9322 -1C 32.8875 -1 32.8209 -1 32.7336 -1C 32.559 -1 32.3018 -1 31.971 -1C 31.3094 -1 30.3537 -1 29.1773 -1C 26.8244 -1 23.5884 -1 20.056 -1C 12.9914 -1 4.74138 -1 0 -1L 0 1Z"/>
</defs>
</svg>
